<svg width="39" height="39" viewBox="0 0 39 39" fill="none" xmlns="http://www.w3.org/2000/svg">
<circle cx="19.5" cy="19.5" r="19.5" fill="#67B4C0"/>
<path d="M11 27H29.75" stroke="white" stroke-width="2" stroke-linecap="round" stroke-linejoin="round"/>
<path d="M25.7698 7.72579C26.2345 7.26107 26.8648 7 27.522 7C27.8474 7 28.1697 7.0641 28.4703 7.18863C28.7709 7.31316 29.0441 7.49568 29.2742 7.72579C29.5043 7.95589 29.6868 8.22906 29.8114 8.5297C29.9359 8.83035 30 9.15257 30 9.47799C30 9.8034 29.9359 10.1256 29.8114 10.4263C29.6868 10.7269 29.5043 11.0001 29.2742 11.2302L14.6725 25.8319L10 27L11.1681 22.3275L25.7698 7.72579Z" stroke="white" stroke-width="2" stroke-linejoin="round"/>
</svg>
